HIERARCHY
ROOT Pelvis
{
	OFFSET 0.000000 0.000000 0.000000
	CHANNELS 6 Xposition Yposition Zposition Zrotation Yrotation Xrotation 
	JOINT Left_hip
	{
		OFFSET 0.067986 -0.089946 -0.007639
		CHANNELS 3 Zrotation Yrotation Xrotation
		JOINT Left_knee
		{
			OFFSET 0.036308 -0.388288 -0.004016
			CHANNELS 3 Zrotation Yrotation Xrotation
			JOINT Left_ankle
			{
				OFFSET -0.012264 -0.413250 -0.042878
				CHANNELS 3 Zrotation Yrotation Xrotation
				JOINT Left_foot
				{
					OFFSET 0.024043 -0.058563 0.118570
					CHANNELS 3 Zrotation Yrotation Xrotation
					End Site
					{
						OFFSET 0.000000 0.000000 0.000000
					}
				}
			}
		}
	}
	JOINT Right_hip
	{
		OFFSET -0.065648 -0.089374 -0.003858
		CHANNELS 3 Zrotation Yrotation Xrotation
		JOINT Right_knee
		{
			OFFSET -0.042132 -0.395021 -0.006361
			CHANNELS 3 Zrotation Yrotation Xrotation
			JOINT Right_ankle
			{
				OFFSET 0.014805 -0.413264 -0.041054
				CHANNELS 3 Zrotation Yrotation Xrotation
				JOINT Right_foot
				{
					OFFSET -0.021758 -0.049013 0.121832
					CHANNELS 3 Zrotation Yrotation Xrotation
					End Site
					{
						OFFSET 0.000000 0.000000 0.000000
					}
				}
			}
		}
	}
	JOINT Spine1
	{
		OFFSET -0.002755 0.104406 -0.022277
		CHANNELS 3 Zrotation Yrotation Xrotation
		JOINT Spine2
		{
			OFFSET 0.004136 0.129393 -0.002186
			CHANNELS 3 Zrotation Yrotation Xrotation
			JOINT Spine3
			{
				OFFSET 0.001906 0.049304 0.025578
				CHANNELS 3 Zrotation Yrotation Xrotation
				JOINT Neck
				{
					OFFSET -0.004620 0.210958 -0.044063
					CHANNELS 3 Zrotation Yrotation Xrotation
					JOINT Head
					{
						OFFSET 0.003833 0.067393 0.052435
						CHANNELS 3 Zrotation Yrotation Xrotation
						End Site
						{
							OFFSET 0.000000 0.000000 0.000000
						}
					}
				}
				JOINT Left_collar
				{
					OFFSET 0.070771 0.116689 -0.037192
					CHANNELS 3 Zrotation Yrotation Xrotation
					JOINT Left_shoulder
					{
						OFFSET 0.080652 0.031596 -0.005617
						CHANNELS 3 Zrotation Yrotation Xrotation
						JOINT Left_elbow
						{
							OFFSET 0.262654 -0.015020 -0.027939
							CHANNELS 3 Zrotation Yrotation Xrotation
							JOINT Left_wrist
							{
								OFFSET 0.250438 0.010062 -0.000990
								CHANNELS 3 Zrotation Yrotation Xrotation
								JOINT Left_palm
								{
									OFFSET 0.081198 -0.010037 -0.013706
									CHANNELS 3 Zrotation Yrotation Xrotation
									End Site
									{
										OFFSET 0.000000 0.000000 0.000000
									}
								}
							}
						}
					}
				}
				JOINT Right_collar
				{
					OFFSET -0.072972 0.115556 -0.040762
					CHANNELS 3 Zrotation Yrotation Xrotation
					JOINT Right_shoulder
					{
						OFFSET -0.082917 0.031841 -0.006673
						CHANNELS 3 Zrotation Yrotation Xrotation
						JOINT Right_elbow
						{
							OFFSET -0.252882 -0.013790 -0.020410
							CHANNELS 3 Zrotation Yrotation Xrotation
							JOINT Right_wrist
							{
								OFFSET -0.255570 0.009163 -0.005138
								CHANNELS 3 Zrotation Yrotation Xrotation
								JOINT Right_palm
								{
									OFFSET -0.080804 -0.007282 -0.010415
									CHANNELS 3 Zrotation Yrotation Xrotation
									End Site
									{
										OFFSET 0.000000 0.000000 0.000000
									}
								}
							}
						}
					}
				}
			}
		}
	}
}
MOTION
Frames: 11
Frame Time: 0.100000
0.000000 0.000000 0.000000 174.976746 23.425560 -19.568987 8.864643 7.003394 8.879046 -5.113841 -13.922505 -1.326571 -7.296527 14.127893 -9.005925 2.817956 1.067605 1.207349 -5.882169 -6.374737 8.106830 5.750981 11.163926 1.404822 13.018785 -11.716671 -9.598301 -8.579313 8.681098 2.275970 1.662726 1.595700 10.304338 0.588118 -2.695368 0.644414 1.256710 0.059976 2.721444 1.514860 4.943178 5.072377 0.917305 1.765505 -1.426357 -5.882124 2.607348 -8.324326 0.505758 3.486100 -14.822826 2.468176 -5.941624 -9.080060 -1.138390 -6.342206 22.920231 -6.873698 -1.937026 -14.138156 5.918608 -1.977271 -6.252768 1.326639 -4.475712 -11.452916 -4.622413 6.511078 -9.774067 2.379353 2.016293 15.796782 7.713609 4.235659 -3.874515 
0.000184 0.000030 0.000072 175.029295 23.347789 -19.541870 8.838836 7.036045 8.880472 -5.097288 -13.925659 -1.308494 -7.313012 14.166748 -8.996676 2.831833 1.110566 1.107134 -5.896689 -6.353385 8.042837 5.774005 11.227146 1.494058 13.053994 -11.740187 -9.647722 -8.650092 8.729787 2.236993 1.696801 1.566713 10.380688 0.578158 -2.674210 0.597909 1.229986 0.039191 2.768551 1.466092 4.801495 5.197306 0.866462 1.617050 -1.276638 -5.835160 2.777342 -8.329532 0.533813 3.550992 -14.856346 2.456428 -6.037742 -9.051199 -1.148106 -6.308491 23.026021 -6.885345 -1.930627 -14.170315 5.908216 -2.120759 -6.328425 1.381815 -4.575042 -11.451644 -4.603056 6.631357 -9.914349 2.348047 2.049961 15.836525 7.741993 4.239598 -3.898753 
0.000163 -0.000036 0.000356 175.068633 23.180093 -19.463216 8.847169 7.073605 8.896182 -5.092280 -13.858448 -1.358205 -7.302225 14.235355 -9.008597 2.827911 1.075494 1.126445 -5.879710 -6.319311 7.929114 5.788561 11.276745 1.568233 13.035118 -11.665458 -9.650039 -8.598032 8.705927 2.233545 1.708553 1.545846 10.345020 0.613544 -2.654204 0.575010 1.229700 0.054746 2.790929 1.449989 4.836231 5.295133 0.819813 1.588860 -1.198897 -5.807116 2.933667 -8.356529 0.578971 3.643711 -14.928990 2.476917 -5.947679 -9.205275 -1.124591 -6.288578 23.020380 -6.881205 -1.923181 -14.140607 5.983847 -2.219145 -6.333179 1.439940 -4.522323 -11.392645 -4.590709 6.637111 -9.786854 2.389022 2.039401 15.870606 7.725833 4.235105 -3.871352 
-0.000180 -0.000111 0.000772 175.097210 23.079251 -19.417439 8.839434 7.093612 8.986044 -5.068521 -13.820013 -1.476099 -7.294344 14.288703 -9.023638 2.808137 1.025472 1.174904 -5.892952 -6.305321 7.902758 5.795669 11.306185 1.593543 13.038805 -11.617839 -9.662870 -8.567015 8.724181 2.251296 1.734506 1.536173 10.307841 0.652942 -2.632017 0.586733 1.241099 0.077786 2.786765 1.380993 4.864826 5.238107 0.751073 1.543431 -1.189130 -5.834475 2.972011 -8.386991 0.688133 3.681370 -14.971354 2.540393 -5.995230 -9.323690 -1.104896 -6.312204 23.043386 -6.881760 -1.922590 -14.074860 6.126281 -2.223518 -6.308009 1.407420 -4.553002 -11.333584 -4.554322 6.545679 -9.669650 2.431787 2.046778 16.047610 7.709473 4.235050 -3.850636 
-0.000864 -0.000267 0.001336 175.119616 23.012052 -19.390725 8.820819 7.124376 9.065484 -5.066077 -13.801810 -1.526923 -7.300539 14.305236 -9.081633 2.835776 1.026519 1.230018 -5.927679 -6.284413 7.948518 5.789602 11.344331 1.548190 13.068565 -11.619399 -9.672413 -8.589002 8.794438 2.276767 1.733855 1.530568 10.188682 0.717854 -2.639504 0.615233 1.264229 0.082147 2.770383 1.436123 4.870074 5.230653 0.709126 1.480703 -1.142197 -5.912415 2.944122 -8.381462 0.800760 3.716472 -14.934563 2.547705 -6.057256 -9.368857 -1.009961 -6.291689 23.130873 -6.973737 -1.964291 -14.160553 6.284771 -2.152047 -6.313606 1.310456 -4.476934 -11.314901 -4.495575 6.575591 -9.789202 2.343254 2.044913 15.960741 7.790917 4.255128 -3.904165 
-0.001575 -0.000347 0.001778 175.137031 22.977098 -19.397481 8.790422 7.140825 9.158677 -5.065959 -13.779556 -1.547570 -7.291335 14.289708 -9.148716 2.832977 1.026407 1.256800 -5.970345 -6.258822 8.006590 5.773134 11.351040 1.557851 13.081707 -11.591973 -9.714742 -8.590869 8.798087 2.290751 1.755436 1.541316 10.149894 0.753124 -2.628261 0.640505 1.281690 0.102801 2.725708 1.438256 4.790907 5.077141 0.707246 1.383309 -1.220811 -6.065885 2.856287 -8.351712 0.741532 3.711192 -14.852465 2.596089 -6.234967 -9.408039 -0.745013 -6.417870 23.165164 -7.085209 -2.015250 -14.212246 6.454375 -2.024933 -6.272756 1.293309 -4.496546 -11.289612 -4.566063 6.759667 -10.006094 2.086316 2.146277 15.876612 7.883099 4.289473 -3.972948 
-0.002208 -0.000432 0.002111 175.155053 23.016784 -19.328526 8.742381 7.136182 9.147465 -5.086361 -13.696072 -1.576931 -7.275667 14.141981 -9.155190 2.827233 1.165988 1.158866 -6.032378 -6.242727 8.007653 5.766877 11.257267 1.522072 13.089540 -11.531113 -9.753716 -8.588933 8.799511 2.363835 1.789889 1.504600 10.130145 0.737555 -2.584689 0.601831 1.259904 0.071149 2.658576 1.531942 4.694231 4.843944 0.639399 1.356780 -1.149736 -6.593367 3.007303 -8.289252 0.462667 3.712087 -14.655329 3.264429 -7.380370 -9.427201 -0.252137 -6.726767 23.221969 -7.296874 -2.117473 -14.270312 6.857593 -2.085004 -6.278398 1.273393 -4.550628 -11.195360 -5.040448 7.716784 -10.442857 1.559785 2.430007 15.751052 8.082664 4.346574 -3.996853 
-0.002559 -0.000495 0.002570 175.158769 23.006963 -19.293801 8.733065 7.129736 9.157536 -5.080967 -13.587622 -1.591778 -7.240556 13.928313 -9.168837 2.870207 1.472150 1.061371 -6.045360 -6.174933 8.020501 5.775417 11.121825 1.505093 13.032574 -11.441883 -9.793350 -8.504815 8.719970 2.459399 1.765175 1.490870 10.135247 0.746090 -2.550737 0.663942 1.233771 0.019330 2.554874 1.764349 4.717660 4.739895 0.520614 1.366400 -0.994643 -7.241820 3.187528 -8.187787 0.140731 3.804223 -14.458079 4.128280 -8.911199 -9.389505 -0.381879 -6.814086 23.380622 -7.600809 -2.250369 -14.524692 7.319588 -2.253410 -6.324441 1.369402 -4.593232 -11.040312 -6.239604 9.932901 -11.112416 1.437535 2.727207 15.172138 8.408920 4.431273 -4.034301 
-0.002645 -0.000626 0.003248 175.149226 22.939534 -19.271905 8.760727 7.024207 9.202528 -5.061774 -13.374599 -1.642776 -7.137059 13.741891 -9.142793 2.898652 1.875191 0.937491 -6.006619 -6.097970 8.048399 5.789450 10.966609 1.462012 12.870399 -11.289539 -9.759123 -8.342229 8.550457 2.520338 1.717320 1.475040 10.054513 0.686951 -2.449672 0.824223 1.191470 -0.002001 2.480469 2.067308 4.620423 4.719253 0.537774 1.464359 -0.914172 -7.921124 3.593782 -8.088363 -0.477952 3.765650 -14.412360 5.686027 -11.244697 -10.276544 -0.830317 -6.722505 22.153309 -7.695886 -2.304084 -14.210887 7.675382 -2.536552 -6.333422 1.735506 -4.499112 -10.831495 -7.990381 12.678095 -11.917379 1.654945 2.911607 14.537469 8.569799 4.492741 -3.854339 
-0.002565 -0.000699 0.003767 175.184765 22.862028 -19.072429 8.696638 6.841444 9.004599 -5.004674 -12.938384 -1.627138 -6.914992 13.297716 -9.024360 3.045372 2.869822 0.569207 -5.954916 -5.917728 7.882565 5.798261 10.580854 1.402398 12.630990 -10.991833 -9.662044 -8.208558 8.124385 2.483198 1.625275 1.470317 9.904884 0.610587 -2.255576 1.072387 1.124170 -0.091656 2.290507 2.395977 4.673880 4.361181 0.326525 1.647123 -1.254796 -8.864174 4.555460 -7.952010 -1.798798 3.660703 -14.392954 8.706791 -15.735197 -11.878593 -2.726915 -5.974432 19.692311 -8.014643 -2.414159 -13.969659 8.143927 -3.442689 -6.463650 3.027835 -4.367194 -10.465711 -12.128321 18.420834 -15.097314 2.531490 2.895207 11.421666 9.245909 4.624700 -3.757583 
-0.003225 -0.000778 0.004302 175.252421 22.866582 -18.954486 8.584285 6.690169 8.911984 -4.937634 -12.315964 -1.624735 -6.763017 12.366301 -8.819054 3.496812 4.262024 -0.218501 -5.973144 -5.671785 7.880154 5.696092 9.877964 1.278342 12.348915 -10.341585 -9.474758 -8.131301 7.068377 2.151067 1.547683 1.430253 9.669611 0.576363 -2.137234 1.568852 1.043918 -0.294556 2.089431 2.682214 4.927391 3.898876 -0.160840 2.128974 -1.887684 -10.115757 6.103779 -7.479602 -5.072703 3.566035 -13.625635 13.437589 -23.410582 -12.890897 -4.053515 -5.674377 16.637775 -8.857680 -2.716853 -13.999579 8.665678 -5.015406 -6.628404 6.098350 -3.982910 -9.445762 -20.443809 28.856835 -20.247579 2.608475 3.459319 7.307391 10.505421 4.994468 -3.859157 
